<svg viewBox="0 0 84 84" fill="none" xmlns="http://www.w3.org/2000/svg">
    <path d="M55.5423 32.7028L41.7328 27.6221L27.9219 32.7028L27.9233 50.4621L41.7328 55.5427L55.5423 50.4621V32.7028Z" fill="black"/>
    <path d="M83.4588 5.02748L83.4616 5.02609L69.5518 0L55.642 5.02609L41.7308 0L27.8167 5.02748L13.9098 0L0 5.02609V22.5945L13.9098 27.6204L27.821 22.5945L41.7308 27.6204L55.642 22.5945L69.5518 27.6204L83.4616 22.5945V5.02609L83.4588 5.02748Z" fill="#0096AA"/>
    <path d="M27.9206 4.95297L13.961 9.90732L0 4.95297L13.961 0L27.9206 4.95297Z" fill="black"/>
    <path d="M55.5417 4.95297L41.5821 9.90732L27.6211 4.95297L41.5821 0L55.5417 4.95297Z" fill="black"/>
    <path d="M83.4616 4.95297L69.5006 9.90732L55.541 4.95297L69.5006 0L83.4616 4.95297Z" fill="black"/>
    <path d="M55.5394 32.725L41.7306 37.7991L27.9219 32.7236V50.4635L41.7321 55.5405L55.5423 50.4635L55.5394 32.725Z" fill="#0096AA"/>
    <path d="M55.5423 60.6222L41.7328 55.5415L27.9219 60.6222L27.9233 78.3814L41.7328 83.4621L55.5423 78.3814V60.6222Z" fill="black"/>
    <path d="M55.5394 60.6445L41.7306 65.7186L27.9219 60.6431V78.3844L41.7321 83.4599L55.5423 78.3844L55.5394 60.6445Z" fill="#0096AA"/>
    <path d="M28 41.7238C20.2679 41.7238 13.9999 47.9916 13.9999 55.7236C13.9999 47.9916 7.73206 41.7238 0 41.7238C7.73206 41.7238 13.9999 35.4557 13.9999 27.7236C13.9999 35.4557 20.2679 41.7238 28 41.7238Z" fill="black"/>
    <path d="M28 69.7238C20.2679 69.7238 13.9999 75.9916 13.9999 83.7236C13.9999 75.9916 7.73206 69.7238 0 69.7238C7.73206 69.7238 13.9999 63.4557 13.9999 55.7236C13.9999 63.4557 20.2679 69.7238 28 69.7238Z" fill="black"/>
    <path d="M83.542 41.7238C75.8099 41.7238 69.5419 47.9916 69.5419 55.7236C69.5419 47.9916 63.2741 41.7238 55.542 41.7238C63.2741 41.7238 69.5419 35.4557 69.5419 27.7236C69.5419 35.4557 75.8099 41.7238 83.542 41.7238Z" fill="black"/>
    <path d="M83.542 69.7238C75.8099 69.7238 69.5419 75.9916 69.5419 83.7236C69.5419 75.9916 63.2741 69.7238 55.542 69.7238C63.2741 69.7238 69.5419 63.4557 69.5419 55.7236C69.5419 63.4557 75.8099 69.7238 83.542 69.7238Z" fill="black"/>
</svg>