<?xml version="1.0" encoding="UTF-8"?>
<!DOCTYPE svg PUBLIC "-//W3C//DTD SVG 1.1//EN" "http://www.w3.org/Graphics/SVG/1.1/DTD/svg11.dtd">
<!-- Creator: CorelDRAW X7 -->
<svg xmlns="http://www.w3.org/2000/svg" xml:space="preserve" version="1.1" style="shape-rendering:geometricPrecision; text-rendering:geometricPrecision; image-rendering:optimizeQuality; fill-rule:evenodd; clip-rule:evenodd"
viewBox="0 0 645 644"
 xmlns:xlink="http://www.w3.org/1999/xlink">
 <defs>
  <style type="text/css">
   <![CDATA[
    .fil0 {fill:black}
    .fil1 {fill:#0096FF}
   ]]>
  </style>
 </defs>
 <g>
  <metadata id="CorelCorpID_0Corel-Layer"/>
  <polygon class="fil0" points="430,253 322,214 214,253 214,390 322,430 430,390 "/>
  <polygon class="fil1" points="643,39 536,0 429,39 322,0 214,39 107,0 0,39 0,175 107,214 214,175 322,214 429,175 536,214 643,175 643,39 "/>
  <polygon class="fil0" points="214,38 107,77 0,38 107,0 "/>
  <polygon class="fil0" points="430,38 322,77 214,38 322,0 "/>
  <polygon class="fil0" points="643,38 536,77 430,38 536,0 "/>
  <polygon class="fil1" points="430,253 322,292 214,253 214,390 322,430 430,390 "/>
  <polygon class="fil0" points="430,468 322,430 214,468 214,605 322,643 430,605 "/>
  <polygon class="fil1" points="430,469 322,508 214,469 214,604 322,643 430,604 "/>
  <path class="fil0" d="M599 322c33,-25 51,-50 45,-61 -7,-12 -38,-8 -77,8 -6,-33 -17,-55 -30,-55 -12,0 -23,22 -29,55 -39,-16 -70,-20 -77,-8 -6,12 12,36 45,61 -33,25 -51,50 -45,61 7,12 38,8 77,-8 6,33 17,54 30,54 12,0 23,-22 29,-54 39,16 70,20 77,8 6,-12 -12,-36 -45,-61z"/>
  <path class="fil0" d="M599 537c33,-25 51,-50 45,-61 -7,-12 -38,-8 -77,8 -6,-33 -17,-55 -30,-55 -12,0 -23,22 -29,55 -39,-16 -70,-20 -77,-8 -6,12 12,36 45,61 -33,25 -51,50 -45,61 7,12 38,8 77,-8 6,33 17,54 30,54 12,0 23,-22 29,-54 39,16 70,20 77,8 6,-12 -12,-36 -45,-61z"/>
  <path class="fil0" d="M169 322c33,-25 51,-50 45,-61 -7,-12 -38,-8 -77,8 -6,-33 -17,-55 -30,-55 -12,0 -23,22 -29,55 -39,-16 -70,-20 -77,-8 -6,12 12,36 45,61 -33,25 -51,50 -45,61 7,12 38,8 77,-8 6,33 17,54 30,54 12,0 23,-22 29,-54 39,16 70,20 77,8 6,-12 -12,-36 -45,-61z"/>
  <path class="fil0" d="M169 537c33,-25 51,-50 45,-61 -7,-12 -38,-8 -77,8 -6,-33 -17,-55 -30,-55 -12,0 -23,22 -29,55 -39,-16 -70,-20 -77,-8 -6,12 12,36 45,61 -33,25 -51,50 -45,61 7,12 38,8 77,-8 6,33 17,54 30,54 12,0 23,-22 29,-54 39,16 70,20 77,8 6,-12 -12,-36 -45,-61z"/>
 </g>
</svg>
