<svg viewBox="0 0 85 84" fill="none" xmlns="http://www.w3.org/2000/svg">
 <path d="M84.0032 33.0968L70.0039 28.0005L56.002 33.0968L42.0027 28.0005L27.9995 33.0968L14.001 28.0005L0.00195312 33.0968V50.9024L14.001 56.0019L27.9995 50.9024L42.0027 56.0019L56.002 50.9024L70.0039 56.0019L84.0032 50.9024V33.0968Z" fill="black"/>
 <path d="M84.0032 5.09603L70.0039 -0.00012207L56.002 5.09603L42.0027 -0.00012207L27.9995 5.09603L14.001 -0.00012207L0.00195312 5.09603V22.9083L14.001 28.0012L27.9995 22.9083L42.0027 28.0012L56.002 22.9083L70.0039 28.0012L84.0032 22.9083V5.09603Z" fill="#91D200"/>
 <path d="M28.0012 5.09615L13.999 10.1958L0 5.09615L13.999 0L28.0012 5.09615Z" fill="black"/>
 <path d="M55.9948 5.09603L41.9954 10.1956L27.9961 5.09603L41.9954 -0.00012207L55.9948 5.09603Z" fill="black"/>
 <path d="M83.9973 5.09603L69.9979 10.1956L55.9922 5.09603L69.9979 -0.00012207L83.9973 5.09603Z" fill="black"/>
 <path d="M55.9948 33.0995L41.9954 38.1956L27.9961 33.0995V50.9051L41.9954 56.0046L55.9948 50.9051V33.0995Z" fill="#91D200"/>
 <path d="M84.0032 61.1015L70.0039 56.0052L56.002 61.1015L42.0027 56.0052L27.9995 61.1015L14.001 56.0052L0.00195312 61.1015V78.9078L14.001 83.9999L27.9995 78.9078L42.0027 83.9999L56.002 78.9078L70.0039 83.9999L84.0032 78.9078V61.1015Z" fill="black"/>
 <path d="M55.9948 61.0994L41.9954 66.1919L27.9961 61.0994V78.9051L41.9954 83.9986L55.9948 78.9051V61.0994Z" fill="#91D200"/>
</svg>