<svg viewBox="0 0 85 85" fill="none" xmlns="http://www.w3.org/2000/svg">
 <path d="M56.8939 33.271L42.8432 28.1572L28.791 33.271L28.7925 51.1463L42.8432 56.2601L56.8939 51.1463V33.271Z" fill="black"/>
 <path d="M84.6929 5.41488L84.6958 5.41347L70.6952 0.35498L56.6946 5.41347L42.6926 0.35498L28.6877 5.41488L14.69 0.35498L0.689453 5.41347V23.0955L14.69 28.1556L28.6921 23.0955L42.6926 28.1556L56.6946 23.0955L70.6952 28.1556L84.6958 23.0955V5.41347L84.6929 5.41488Z" fill="#3B7698"/>
 <path d="M28.7923 5.34014L14.7416 10.327L0.689453 5.34014L14.7416 0.35498L28.7923 5.34014Z" fill="black"/>
 <path d="M56.8939 5.34014L42.8432 10.327L28.791 5.34014L42.8432 0.35498L56.8939 5.34014Z" fill="black"/>
 <path d="M84.6971 5.34014L70.7961 10.327L56.8965 5.34014L70.7961 0.35498L84.6971 5.34014Z" fill="black"/>
 <path d="M56.891 33.2942L42.841 38.4013L28.791 33.2925V51.1497L42.8424 56.2582L56.8939 51.1497L56.891 33.2942Z" fill="#3B7698"/>
 <path d="M56.8939 61.3192L42.8432 56.2603L28.791 61.3192L28.7925 79.0019L42.8432 84.0609L56.8939 79.0019V61.3192Z" fill="black"/>
 <path d="M56.891 61.3969L42.841 66.4368L28.791 61.3955V79.0175L42.8424 84.0591L56.8939 79.0175L56.891 61.3969Z" fill="#3B7698"/>
 <path fill-rule="evenodd" clip-rule="evenodd" d="M79.1782 38.927L74.5991 37.8639L70.0887 36.8167L69.437 36.6654C68.9272 36.6788 68.4162 36.9987 67.9331 37.6251L64.9594 41.5062C64.5024 42.0961 64.5024 42.3183 64.9594 42.9068L67.9331 46.7878C68.4162 47.4142 68.9272 47.7341 69.437 47.7475L70.0886 47.5962L74.5993 46.5492L79.1729 45.4876C79.3512 45.4077 79.531 45.3661 79.7112 45.3627C80.2402 45.3526 80.7716 45.6722 81.2722 46.3214L84.6971 51.1368L70.7961 56.2601L56.8965 51.1368V33.2646L70.7961 28.1572L84.6971 33.2646L81.2722 38.0959C80.7723 38.7438 80.2409 39.0623 79.7112 39.0508C79.5329 39.0469 79.3548 39.0057 79.1782 38.927Z" fill="black"/>
 <path fill-rule="evenodd" clip-rule="evenodd" d="M79.1782 66.7249L74.5991 65.6618L70.0887 64.6146L69.437 64.4633C68.9272 64.4767 68.4162 64.7965 67.9331 65.4229L64.9594 69.304C64.5024 69.8939 64.5024 70.1162 64.9594 70.7047L67.9331 74.5857C68.4162 75.2121 68.9272 75.5319 69.437 75.5453L70.0886 75.3941L74.5993 74.3471L79.1729 73.2854C79.3512 73.2056 79.531 73.1639 79.7112 73.1605C80.2402 73.1504 80.7716 73.47 81.2722 74.1193L84.6971 78.9346L70.7961 84.0579L56.8965 78.9346V61.0624L70.7961 55.9551L84.6971 61.0624L81.2722 65.8937C80.7723 66.5416 80.2409 66.8601 79.7112 66.8486C79.5329 66.8448 79.3548 66.8035 79.1782 66.7249Z" fill="black"/>
 <path fill-rule="evenodd" clip-rule="evenodd" d="M6.50926 38.927L11.0884 37.8639L15.5988 36.8167L16.2505 36.6654C16.7603 36.6788 17.2713 36.9987 17.7544 37.6251L20.7281 41.5062C21.1851 42.0961 21.1851 42.3183 20.7281 42.9068L17.7544 46.7878C17.2713 47.4142 16.7603 47.7341 16.2505 47.7475L15.5989 47.5962L11.0882 46.5492L6.51456 45.4876C6.3363 45.4077 6.15645 45.3661 5.97634 45.3627C5.44732 45.3526 4.91594 45.6722 4.41531 46.3214L0.990353 51.1368L14.8914 56.2601L28.791 51.1368V33.2646L14.8914 28.1572L0.990353 33.2646L4.41531 38.0959C4.91516 38.7438 5.44658 39.0623 5.97634 39.0508C6.15459 39.0469 6.33266 39.0057 6.50926 38.927Z" fill="black"/>
 <path fill-rule="evenodd" clip-rule="evenodd" d="M6.50926 66.7249L11.0884 65.6618L15.5988 64.6146L16.2505 64.4633C16.7603 64.4767 17.2713 64.7965 17.7544 65.4229L20.7281 69.304C21.1851 69.8939 21.1851 70.1162 20.7281 70.7047L17.7544 74.5857C17.2713 75.2121 16.7603 75.5319 16.2505 75.5453L15.5989 75.3941L11.0882 74.3471L6.51456 73.2854C6.3363 73.2056 6.15645 73.1639 5.97634 73.1605C5.44732 73.1504 4.91594 73.47 4.41531 74.1193L0.990353 78.9346L14.8914 84.0579L28.791 78.9346V61.0624L14.8914 55.9551L0.990353 61.0624L4.41531 65.8937C4.91516 66.5416 5.44658 66.8601 5.97634 66.8486C6.15459 66.8448 6.33266 66.8035 6.50926 66.7249Z" fill="black"/>
</svg>
