<svg viewBox="0 0 95 95" fill="none" xmlns="http://www.w3.org/2000/svg">
<path d="M0.296426 30.9568C0.296426 35.1734 1.97146 39.2173 4.95304 42.1989C7.93461 45.1804 11.9785 46.8555 16.1951 46.8555C20.4117 46.8555 24.4556 45.1804 27.4371 42.1989C30.4187 39.2173 32.0938 35.1734 32.0938 30.9568L16.1951 30.9568L0.296426 30.9568Z" fill="black"/>
<path d="M32.0942 62.7541C32.0942 58.5375 30.4192 54.4937 27.4376 51.5121C24.456 48.5305 20.4121 46.8555 16.1955 46.8555C11.979 46.8555 7.93506 48.5305 4.95349 51.5121C1.97191 54.4937 0.296875 58.5375 0.296874 62.7541L16.1955 62.7541L32.0942 62.7541Z" fill="black"/>
<path d="M0.296426 62.7537C0.296426 66.9703 1.97146 71.0142 4.95304 73.9957C7.93461 76.9773 11.9785 78.6523 16.1951 78.6523C20.4117 78.6523 24.4556 76.9773 27.4371 73.9957C30.4187 71.0142 32.0938 66.9703 32.0938 62.7537L16.1951 62.7537L0.296426 62.7537Z" fill="black"/>
<path d="M32.0942 94.551C32.0942 90.3344 30.4192 86.2905 27.4376 83.309C24.456 80.3274 20.4121 78.6523 16.1955 78.6523C11.979 78.6523 7.93506 80.3274 4.95349 83.309C1.97191 86.2905 0.296875 90.3344 0.296874 94.551L16.1955 94.551L32.0942 94.551Z" fill="black"/>
<path d="M62.2339 30.9568C62.2339 35.1734 63.909 39.2173 66.8905 42.1989C69.8721 45.1804 73.916 46.8555 78.1326 46.8555C82.3492 46.8555 86.3931 45.1804 89.3746 42.1989C92.3562 39.2173 94.0313 35.1734 94.0313 30.9568L78.1326 30.9568L62.2339 30.9568Z" fill="black"/>
<path d="M94.0317 62.7541C94.0317 58.5375 92.3567 54.4937 89.3751 51.5121C86.3935 48.5305 82.3496 46.8555 78.133 46.8555C73.9165 46.8555 69.8726 48.5305 66.891 51.5121C63.9094 54.4937 62.2344 58.5375 62.2344 62.7541L78.133 62.7541L94.0317 62.7541Z" fill="black"/>
<path d="M62.2339 62.7537C62.2339 66.9703 63.909 71.0142 66.8905 73.9957C69.8721 76.9773 73.916 78.6523 78.1326 78.6523C82.3492 78.6523 86.3931 76.9773 89.3746 73.9957C92.3562 71.0142 94.0313 66.9703 94.0313 62.7537L78.1326 62.7537L62.2339 62.7537Z" fill="black"/>
<path d="M94.0317 94.551C94.0317 90.3344 92.3567 86.2905 89.3751 83.309C86.3935 80.3274 82.3496 78.6523 78.133 78.6523C73.9165 78.6523 69.8726 80.3274 66.891 83.309C63.9094 86.2905 62.2344 90.3344 62.2344 94.551L78.133 94.551L94.0317 94.551Z" fill="black"/>
<path d="M62.5365 36.7689L47.0073 31.1172L31.4766 36.7689L31.4782 56.5253L47.0073 62.1771L62.5365 56.5253V36.7689Z" fill="black"/>
<path d="M93.2566 5.98152L93.2598 5.97842L77.786 0.388672L62.3123 5.97842L46.8369 0.388672L31.3584 5.98152L15.8878 0.388672L0.414062 5.97842V25.523L15.8878 31.1146L31.3632 25.523L46.8369 31.1146L62.3123 25.523L77.786 31.1146L93.2598 25.523V5.97842L93.2566 5.98152Z" fill="#FB7E0B"/>
<path d="M31.474 5.90022L15.9448 11.4099L0.414062 5.90022L15.9448 0.388672L31.474 5.90022Z" fill="black"/>
<path d="M62.5365 5.90022L47.0073 11.4099L31.4766 5.90022L47.0073 0.388672L62.5365 5.90022Z" fill="black"/>
<path d="M93.265 5.90022L77.9012 11.4099L62.5391 5.90022L77.9012 0.388672L93.265 5.90022Z" fill="black"/>
<path d="M62.5333 36.7948L47.0049 42.4409L31.4766 36.793V56.5292L47.0065 62.1753L62.5365 56.5292L62.5333 36.7948Z" fill="#FB7E0B"/>
<path d="M62.5365 67.7668L47.0073 62.1738L31.4766 67.7668L31.4782 87.3105L47.0073 92.8998L62.5365 87.3105V67.7668Z" fill="black"/>
<path d="M62.5333 67.8516L47.0049 73.4234L31.4766 67.8516V87.3262L47.0065 92.8999L62.5365 87.3262L62.5333 67.8516Z" fill="#FB7E0B"/>
</svg>
