<svg viewBox="0 0 291 289" fill="none" xmlns="http://www.w3.org/2000/svg">
<path d="M193.92 113.552L145.609 95.9688L97.293 113.552L97.298 175.014L145.609 192.596L193.92 175.014V113.552Z" fill="black"/>
<path d="M289.507 17.7647L241.369 0.375L193.23 17.7647L145.086 0.375L96.932 17.7744L48.803 0.375L0.664062 17.7647V78.568L48.803 95.9638L96.947 78.568L145.086 95.9638L193.23 78.568L241.369 95.9638L289.507 78.568V17.7647Z" fill="#B6B4E5"/>
<path d="M97.292 17.5214L48.9803 34.6622L0.664062 17.5214L48.9803 0.375L97.292 17.5214Z" fill="black"/>
<path d="M193.92 17.5214L145.609 34.6622L97.293 17.5214L145.609 0.375L193.92 17.5214Z" fill="black"/>
<path d="M289.506 17.5214L241.71 34.6622L193.918 17.5214L241.71 0.375L289.506 17.5214Z" fill="black"/>
<path d="M193.91 113.627L145.602 131.192L97.293 113.621V175.021L145.607 192.586L193.92 175.021L193.91 113.627Z" fill="#B6B4E5"/>
<path d="M193.92 209.974L145.609 192.574L97.293 209.974L97.298 270.775L145.609 288.163L193.92 270.775V209.974Z" fill="black"/>
<path d="M193.91 210.258L145.602 227.592L97.293 210.258V270.844L145.607 288.183L193.92 270.844L193.91 210.258Z" fill="#B6B4E5"/>
<path d="M265.933 102.309L290.159 144.269L265.933 186.23H217.481L193.255 144.269L217.481 102.309H265.933Z" fill="black"/>
<path d="M73.2023 102.309L97.4281 144.269L73.2023 186.23H24.7504L0.524414 144.269L24.7504 102.309H73.2023Z" fill="black"/>
<path d="M265.933 198.402L290.159 240.363L265.933 282.324H217.481L193.255 240.363L217.481 198.402H265.933Z" fill="black"/>
<path d="M73.2023 198.402L97.4281 240.363L73.2023 282.324H24.7504L0.524414 240.363L24.7504 198.402H73.2023Z" fill="black"/>
</svg>
